<?xml version="1.0" encoding="UTF-8"?>
<svg version="1.1" xmlns="http://www.w3.org/2000/svg" width="500" height="500">
<path d="M0 0 C1.56282715 0.01353516 1.56282715 0.01353516 3.15722656 0.02734375 C11.96002831 0.22326391 19.88637998 1.48566888 28.1875 4.4375 C28.84314941 4.66872559 29.49879883 4.89995117 30.17431641 5.13818359 C44.48415399 10.32791177 58.36582195 16.81202068 72.29736328 22.9296875 C80.06094713 26.33806975 87.82756363 29.73019668 95.65234375 32.99609375 C96.93816399 33.5354509 98.22397168 34.07483797 99.50976562 34.61425781 C101.83925173 35.58770865 104.17234996 36.55258228 106.50976562 37.50683594 C117.33328012 42.04410165 126.50452953 48.13303934 131.5625 59.0625 C134.43428082 66.94487748 134.5557403 75.92459119 131.12109375 83.6484375 C129.56098553 86.63810094 127.93196836 89.55010409 126.1875 92.4375 C126.76757812 92.60765625 127.34765625 92.7778125 127.9453125 92.953125 C136.79033793 95.69712629 142.25081123 99.55719557 147.1875 107.4375 C149.90576726 113.36826494 150.07194964 119.35274873 148.0625 125.5 C145.51597994 131.60203864 141.20931395 136.59386564 135.1875 139.4375 C134.5275 139.4375 133.8675 139.4375 133.1875 139.4375 C133.19638245 140.21487015 133.20526489 140.9922403 133.2144165 141.79316711 C133.29496698 149.16249386 133.35566793 156.53160352 133.39474869 163.90125751 C133.41551684 167.68900328 133.44363353 171.47638163 133.48925781 175.26391602 C133.53310532 178.92738073 133.55671783 182.59049477 133.56700897 186.25420189 C133.57433135 187.64350076 133.58862787 189.03278307 133.61042023 190.42193031 C133.82794642 204.87893682 130.57219054 214.76234674 120.49609375 225.1875 C115.46455224 229.85714409 109.74970195 233.18158283 102.81640625 233.6796875 C98.68655867 234.04421656 95.88854521 234.52257405 92.1875 236.4375 C88.42562272 241.34047116 86.45196923 247.40252753 84.18896484 253.09667969 C81.9412314 258.35052372 78.58944245 262.86976164 75.1875 267.4375 C74.57519531 268.25992187 73.96289062 269.08234375 73.33203125 269.9296875 C71.34641946 272.49255963 69.29321303 274.97227499 67.1875 277.4375 C66.75985352 277.93894531 66.33220703 278.44039063 65.89160156 278.95703125 C58.4394299 287.60302293 50.31499734 294.61466318 41.1875 301.4375 C40.8575 301.7675 40.5275 302.0975 40.1875 302.4375 C40.22587942 304.33580497 40.34405581 306.23272197 40.5 308.125 C40.57863281 309.16011719 40.65726563 310.19523437 40.73828125 311.26171875 C41.19882516 314.51756399 42.11233575 317.33840185 43.1875 320.4375 C43.75034636 320.43289104 44.31319271 320.42828207 44.89309502 320.42353344 C58.62436805 320.31283812 72.3555623 320.23055879 86.08718681 320.17843914 C92.72793752 320.15238382 99.36822383 320.1170597 106.00878906 320.06030273 C112.42139978 320.00583923 118.83370059 319.97604876 125.24652481 319.96311378 C127.68888347 319.95389979 130.13122583 319.93590698 132.573452 319.90884972 C136.00360055 319.87237051 139.43248058 319.86756277 142.86279297 319.86987305 C143.86477219 319.85189667 144.8667514 319.83392029 145.89909363 319.81539917 C152.90810049 319.86623198 158.36692749 321.4379183 164.1875 325.4375 C171.86957709 333.51636409 172.55097707 340.93573203 172.5625 351.75 C172.58699219 352.94818359 172.61148437 354.14636719 172.63671875 355.38085938 C172.66577011 364.16889706 171.3222718 370.74502168 165.1875 377.4375 C164.5275 377.4375 163.8675 377.4375 163.1875 377.4375 C163.1875 378.0975 163.1875 378.7575 163.1875 379.4375 C163.73277344 379.66953125 164.27804687 379.9015625 164.83984375 380.140625 C185.31397468 391.45079384 199.7298497 418.82171784 206.37109375 440.2578125 C209.61190503 451.75630847 211.51186567 462.67072764 211.3125 474.625 C211.30347656 475.67236328 211.29445313 476.71972656 211.28515625 477.79882812 C211.26190075 480.34530514 211.22922569 482.89127031 211.1875 485.4375 C157.57161099 485.46036394 103.95572246 485.47799698 50.33982954 485.48856533 C44.01716174 485.48981611 37.69449395 485.49111043 31.37182617 485.49243164 C29.48364641 485.49282511 29.48364641 485.49282511 27.5573216 485.49322652 C7.14640492 485.49758376 -13.26450896 485.5054716 -33.67542397 485.5146528 C-54.60212827 485.52398785 -75.52883109 485.52955529 -96.45553738 485.53158849 C-109.37961642 485.53296403 -122.30368754 485.53731628 -135.22776414 485.54541647 C-144.07733722 485.55068209 -152.92690619 485.55230472 -161.77648073 485.55100138 C-166.89040795 485.55035771 -172.00432129 485.55137874 -177.11824608 485.55670547 C-181.79185725 485.56153833 -186.46544508 485.56183941 -191.13905729 485.55839889 C-192.83758383 485.55797309 -194.53611178 485.55926978 -196.23463552 485.56238318 C-198.52796606 485.56634536 -200.8212102 485.56426454 -203.11453915 485.56054783 C-204.3930575 485.56092755 -205.67157585 485.56130727 -206.98883718 485.5616985 C-209.8125 485.4375 -209.8125 485.4375 -210.8125 484.4375 C-212.80986796 451.00614443 -202.01788611 419.90361366 -180.3046875 394.50390625 C-175.55173518 389.1477505 -170.65844739 383.63569261 -164.8125 379.4375 C-164.1525 379.4375 -163.4925 379.4375 -162.8125 379.4375 C-163.29460937 378.85742188 -163.77671875 378.27734375 -164.2734375 377.6796875 C-164.90507812 376.89851563 -165.53671875 376.11734375 -166.1875 375.3125 C-166.81398437 374.54679687 -167.44046875 373.78109375 -168.0859375 372.9921875 C-172.52254788 366.42761015 -172.14731474 359.72092007 -172.125 352.0625 C-172.14111328 350.96421875 -172.15722656 349.8659375 -172.17382812 348.734375 C-172.17907484 339.98284942 -170.99626104 332.65124994 -164.73151207 326.09943008 C-158.17924643 320.42494395 -149.86660973 319.84960525 -141.57958984 319.89160156 C-140.50523682 319.88126389 -139.43088379 319.87092621 -138.32397461 319.86027527 C-134.80697304 319.83100489 -131.29055093 319.82935139 -127.7734375 319.828125 C-125.32149163 319.81313278 -122.86955581 319.79640345 -120.41763306 319.77801514 C-113.98976154 319.73444694 -107.56202625 319.71436569 -101.1340332 319.69927979 C-94.56453431 319.67967086 -87.99518171 319.63770504 -81.42578125 319.59765625 C-68.55473721 319.52246806 -55.68371579 319.47134735 -42.8125 319.4375 C-42.32068913 317.85081182 -41.83305431 316.26282885 -41.34716797 314.67431641 C-41.07516571 313.79015045 -40.80316345 312.9059845 -40.5229187 311.99502563 C-39.56765483 308.55605108 -39.20174364 305.97300513 -39.8125 302.4375 C-41.76755444 300.26181245 -43.38505972 298.77113289 -45.6875 297.0625 C-46.8889248 296.10790744 -48.08943657 295.1521647 -49.2890625 294.1953125 C-50.1867334 293.49583496 -50.1867334 293.49583496 -51.10253906 292.78222656 C-68.04232987 279.4606435 -83.88634791 259.23966087 -90.7890625 238.50390625 C-91.61351039 236.25782633 -91.61351039 236.25782633 -93.80859375 235.65234375 C-95.01708984 235.51505859 -95.01708984 235.51505859 -96.25 235.375 C-108.06381203 233.50249377 -117.56779881 229.04678749 -125.125 219.5625 C-130.17463212 212.35274747 -132.96841455 205.08975717 -132.875 196.29541016 C-132.865896 195.05377106 -132.85679199 193.81213196 -132.84741211 192.53286743 C-132.84111786 191.87212849 -132.83482361 191.21138954 -132.82833862 190.5306282 C-132.8012318 187.01522144 -132.81124852 183.49985708 -132.81640625 179.984375 C-132.82261283 175.51803322 -132.81724058 171.05295805 -132.76123047 166.58691406 C-132.71685721 162.97003697 -132.71646408 159.35548127 -132.74536133 155.7384758 C-132.74843355 154.36457974 -132.73562194 152.99054897 -132.70629883 151.61696243 C-132.31827197 143.84898143 -132.31827197 143.84898143 -135.80151367 137.32806396 C-138.16817062 135.69942062 -138.16817062 135.69942062 -140.64306641 134.53671265 C-144.93600374 132.36155918 -146.37273666 128.50549669 -148.125 124.25 C-149.41405635 117.10159659 -149.09486695 110.83100313 -145.1875 104.5625 C-139.96858339 97.62047316 -134.05810324 94.7372941 -125.8125 92.4375 C-126.23402344 91.61765625 -126.65554687 90.7978125 -127.08984375 89.953125 C-127.63769531 88.87546875 -128.18554688 87.7978125 -128.75 86.6875 C-129.29527344 85.62015625 -129.84054688 84.5528125 -130.40234375 83.453125 C-133.6978626 76.40564424 -133.95830615 68.78513828 -131.9765625 61.265625 C-127.46842652 49.3447822 -119.93073143 43.84088403 -108.7109375 38.62109375 C-100.80403381 35.05558978 -92.80568867 31.70137626 -84.80078125 28.36328125 C-78.93800531 25.91792012 -73.10146778 23.41596615 -67.27075195 20.89526367 C-57.0099407 16.46463669 -46.72416218 12.09551157 -36.375 7.875 C-34.91211548 7.26676392 -34.91211548 7.26676392 -33.41967773 6.64624023 C-22.47796411 2.23566328 -11.81147311 -0.12511325 0 0 Z " fill="#030203" transform="translate(249.8125,7.5625)"/>
<path d="M0 0 C1.21794849 37.94377996 -8.55437014 72.62404694 -34.86328125 100.76953125 C-35.56839844 101.50558594 -36.27351562 102.24164063 -37 103 C-37.63292969 103.68449219 -38.26585937 104.36898437 -38.91796875 105.07421875 C-50.46514874 117.19280558 -67.85260442 129.03316918 -84 134 C-90.53511518 133.93693496 -95.63260588 130.96732063 -101.25 127.9375 C-102.18368408 127.43943848 -103.11736816 126.94137695 -104.0793457 126.42822266 C-114.92533049 120.5469692 -124.02657153 113.47652852 -133 105 C-133.75023437 104.31421875 -134.50046875 103.6284375 -135.2734375 102.921875 C-153.49768211 85.65680116 -165.12241149 61.42229178 -170 37 C-170.20367187 36.07316406 -170.40734375 35.14632812 -170.6171875 34.19140625 C-172.69666355 23.23854951 -172.1849361 12.10043367 -172 1 C-168.15999329 1.69299572 -164.78672598 2.82779697 -161.17651367 4.32348633 C-153.80326683 7.37456819 -146.43295027 9.8852598 -138.6875 11.8125 C-137.5262561 12.10398926 -137.5262561 12.10398926 -136.34155273 12.40136719 C-125.06093143 15.09178887 -113.96753903 16.31401122 -102.37890625 16.3359375 C-101.11771469 16.3425943 -99.85652313 16.3492511 -98.55711365 16.35610962 C-95.90226997 16.36617147 -93.24783664 16.37180207 -90.59301758 16.37060547 C-86.60402 16.37036406 -82.61576984 16.41128398 -78.62695312 16.44921875 C-59.47493201 16.53463108 -41.00629854 15.17279014 -22.875 8.5625 C-22.0180957 8.264646 -21.16119141 7.96679199 -20.27832031 7.65991211 C-14.42462983 5.59784175 -8.66728583 3.34396313 -2.984375 0.84765625 C-1 0 -1 0 0 0 Z " fill="#EDCEB3" transform="translate(336,178)"/>
<path d="M0 0 C10.89235032 -0.18597686 21.78431837 -0.32781772 32.67793751 -0.41449738 C37.73728121 -0.45611598 42.79553279 -0.51249688 47.85424805 -0.60351562 C52.74323321 -0.69092245 57.63117309 -0.7383742 62.52087975 -0.75901794 C64.37919239 -0.77371445 66.23745264 -0.80241379 68.09531593 -0.84584045 C78.4286074 -1.07760435 85.80973631 -1.11510709 93.9907074 6.03294373 C94.65377396 6.6820723 95.31684052 7.33120087 96 8 C96.99515625 8.82628906 97.9903125 9.65257812 99.015625 10.50390625 C101.3541824 12.65848624 103.68470376 14.82042802 106 17 C106.60328125 17.53882813 107.2065625 18.07765625 107.828125 18.6328125 C123.74691559 33.43580001 134.35745913 56.55369464 137 78 C137 80.64 137 83.28 137 86 C116.54 86 96.08 86 75 86 C75 70.49 75 54.98 75 39 C69.72 39 64.44 39 59 39 C59 54.51 59 70.02 59 86 C33.26 86 7.52 86 -19 86 C-19 66.53 -19 47.06 -19 27 C-16.36 28.98 -13.72 30.96 -11 33 C-9.01099578 34.34968144 -7.01536763 35.69001104 -5 37 C-4.87882812 35.87464844 -4.75765625 34.74929688 -4.6328125 33.58984375 C-1.68527668 6.47726351 -1.68527668 6.47726351 0 0 Z " fill="#A9B0BB" transform="translate(308,391)"/>
<path d="M0 0 C1.08356781 0.47289963 2.16713562 0.94579926 3.28353882 1.43302917 C6.75312438 2.94882426 10.21840591 4.47418198 13.68359375 6 C17.25835899 7.56588498 20.83403478 9.12967778 24.40974426 10.69340515 C26.75207177 11.71802353 29.09402549 12.74349687 31.43559265 13.76985168 C37.81325125 16.56352751 44.2000212 19.33200427 50.61328125 22.04296875 C51.27925827 22.32496124 51.94523529 22.60695374 52.63139343 22.89749146 C55.52723177 24.12230937 58.42567784 25.34033065 61.32836914 26.54882812 C75.53405909 32.55000495 75.53405909 32.55000495 79.12109375 40 C80.05852977 45.7011415 79.57989107 50.78352204 76.50646973 55.73222351 C75.04934693 58.04165784 75.04934693 58.04165784 73.75427246 60.76521301 C71.82434876 64.13302837 70.08647837 66.47454469 67.12109375 69 C61.16119973 70.54439442 55.39239576 70.28697569 49.27734375 70.07421875 C47.54004867 70.05367795 45.80268945 70.03803138 44.06530762 70.02705383 C39.51303241 69.98523912 34.96467661 69.8773708 30.41394043 69.75531006 C25.76217677 69.64236567 21.10977357 69.59245667 16.45703125 69.53710938 C7.34333867 69.41946905 -1.76745675 69.23197528 -10.87890625 69 C-9.88520389 66.98619762 -8.89158415 65.02100046 -7.73046875 63.09765625 C-0.27566948 50.7283874 0.68901803 39.05612587 0.12109375 25 C-8.40154502 20.44334165 -16.93848294 15.91731356 -25.56640625 11.5625 C-26.21222656 11.23314453 -26.85804688 10.90378906 -27.5234375 10.56445312 C-34.47371783 6.69386826 -34.47371783 6.69386826 -41.98754883 6.97875977 C-43.07189209 7.54393311 -44.15623535 8.10910645 -45.2734375 8.69140625 C-45.86509201 8.99312241 -46.45674652 9.29483856 -47.06632996 9.60569763 C-48.9515691 10.57287651 -50.82097252 11.56704392 -52.69140625 12.5625 C-53.93591997 13.20557707 -55.18135685 13.84687089 -56.42773438 14.48632812 C-62.98021293 17.86496514 -69.46358086 21.36773887 -75.87890625 25 C-76.4577931 39.32744951 -75.17305949 51.29405565 -67.87890625 64 C-67.34394531 64.52335937 -66.80898437 65.04671875 -66.2578125 65.5859375 C-64.87890625 67 -64.87890625 67 -64.87890625 69 C-75.07511192 69.23189209 -85.27068882 69.40947505 -95.46899605 69.51812172 C-100.20488861 69.57027389 -104.93897518 69.64097631 -109.67382812 69.75439453 C-114.24515317 69.86320791 -118.814744 69.92287105 -123.38726425 69.94877243 C-125.12980335 69.96722399 -126.87224932 70.00326073 -128.614048 70.05730057 C-142.29222828 70.46471754 -142.29222828 70.46471754 -146.23406982 66.8258667 C-147.78589982 64.25775881 -148.84869893 61.81014305 -149.87890625 59 C-150.61250308 57.85037192 -151.3788002 56.72020794 -152.19140625 55.625 C-155.14335172 51.03308482 -155.57870044 46.41579849 -154.87890625 41 C-151.24222553 32.05982657 -143.1936262 28.89713412 -134.7265625 25.28515625 C-133.9615593 24.95272415 -133.19655609 24.62029205 -132.40837097 24.27778625 C-129.92214286 23.19950764 -127.43198034 22.13069756 -124.94140625 21.0625 C-123.19937755 20.31044467 -121.4575177 19.5579981 -119.71582031 18.80517578 C-115.29039321 16.89478976 -110.86118496 14.99334579 -106.4307251 13.09466553 C-103.9974644 12.05085844 -101.56558718 11.00390833 -99.13427734 9.95556641 C-91.47664863 6.65533678 -83.80808969 3.38653108 -76.10481262 0.19410706 C-72.55749907 -1.28040661 -69.05002072 -2.82010272 -65.55859375 -4.421875 C-43.53249673 -14.12980948 -21.1911425 -9.38504986 0 0 Z " fill="#959DA7" transform="translate(287.87890625,33)"/>
<path d="M0 0 C1.91383036 0.0130752 3.82768435 0.02303028 5.74154663 0.03001404 C10.74967502 0.05658858 15.75635515 0.12521767 20.76391602 0.20294189 C25.88538019 0.27488172 31.00708115 0.3065909 36.12890625 0.34179688 C46.15688215 0.41660042 56.18378883 0.53588377 66.2109375 0.68359375 C66.38484009 2.1516748 66.38484009 2.1516748 66.56225586 3.64941406 C66.99390746 7.28758402 67.42894254 10.92534282 67.86499023 14.56298828 C68.05308567 16.13612063 68.24026876 17.70936234 68.42651367 19.28271484 C68.6946908 21.54684491 68.96616843 23.81055874 69.23828125 26.07421875 C69.32061508 26.77540833 69.40294891 27.4765979 69.48777771 28.19903564 C69.87840967 31.42331663 70.31055354 34.55852568 71.2109375 37.68359375 C72.06558594 36.96171875 72.92023438 36.23984375 73.80078125 35.49609375 C74.91655889 34.55846548 76.03245017 33.62097244 77.1484375 32.68359375 C77.71240234 32.20664062 78.27636719 31.7296875 78.85742188 31.23828125 C83.09765625 27.68359375 83.09765625 27.68359375 84.2109375 27.68359375 C84.2109375 47.15359375 84.2109375 66.62359375 84.2109375 86.68359375 C75.9609375 86.68359375 67.7109375 86.68359375 59.2109375 86.68359375 C60.29088796 84.52369283 61.37266189 82.3646793 62.46484375 80.2109375 C62.89667969 79.35628906 63.32851562 78.50164062 63.7734375 77.62109375 C64.20785156 76.76386719 64.64226562 75.90664063 65.08984375 75.0234375 C66.73492589 71.58997339 67.35953376 68.77936341 67.52734375 65.015625 C67.56923828 64.12294922 67.61113281 63.23027344 67.65429688 62.31054688 C67.69361328 61.38177734 67.73292969 60.45300781 67.7734375 59.49609375 C67.83821289 58.08553711 67.83821289 58.08553711 67.90429688 56.64648438 C68.01032415 54.32566521 68.11238779 52.0047405 68.2109375 49.68359375 C67.375625 49.43996094 66.5403125 49.19632812 65.6796875 48.9453125 C61.06085529 47.2652643 56.98858641 44.85578113 52.77734375 42.34179688 C49.81427326 40.67241872 47.64735972 39.68131478 44.21875 39.69921875 C40.40983333 40.9457733 37.07079756 42.65999222 33.5859375 44.62109375 C32.28141343 45.33883878 30.97673053 46.05629524 29.671875 46.7734375 C28.52976562 47.40378906 27.38765625 48.03414063 26.2109375 48.68359375 C24.88270251 49.3603611 23.55234167 50.03331914 22.2109375 50.68359375 C21.56688885 63.77924959 22.89977163 74.06377069 31.2109375 84.68359375 C31.2109375 85.34359375 31.2109375 86.00359375 31.2109375 86.68359375 C22.9609375 86.68359375 14.7109375 86.68359375 6.2109375 86.68359375 C6.2109375 71.17359375 6.2109375 55.66359375 6.2109375 39.68359375 C0.9309375 39.68359375 -4.3490625 39.68359375 -9.7890625 39.68359375 C-9.7890625 55.19359375 -9.7890625 70.70359375 -9.7890625 86.68359375 C-30.2490625 86.68359375 -50.7090625 86.68359375 -71.7890625 86.68359375 C-69.43254407 56.0488542 -56.7141109 32.03746746 -34.2265625 11.37109375 C-33.53194916 10.79666031 -32.83733582 10.22222687 -32.12167358 9.63038635 C-29.80936225 7.74974018 -29.80936225 7.74974018 -27.86392212 5.81626892 C-19.56182347 -1.32819258 -10.33322691 -0.2082059 0 0 Z " fill="#A9B0BB" transform="translate(126.7890625,390.31640625)"/>
<path d="M0 0 C67.98 0 135.96 0 206 0 C206 0.66 206 1.32 206 2 C203.69825664 3.64672597 201.41005834 5.15083288 199 6.625 C198.278125 7.0694043 197.55625 7.51380859 196.8125 7.97167969 C167.67407371 25.63938 137.86708905 32.44792747 103.9375 32.3125 C102.9907843 32.31067719 102.0440686 32.30885437 101.06866455 32.30697632 C80.67387281 32.24086992 61.3433616 30.85717051 42 24 C41.36690918 23.77973145 40.73381836 23.55946289 40.08154297 23.33251953 C29.74573181 19.67097799 20.37872488 14.62525421 11 9 C10.41541016 8.65195313 9.83082031 8.30390625 9.22851562 7.9453125 C2.50492798 3.91584534 2.50492798 3.91584534 0 2 C0 1.34 0 0.68 0 0 Z " fill="#939AA5" transform="translate(147,148)"/>
<path d="M0 0 C1.56201687 -0.01169993 1.56201687 -0.01169993 3.15558964 -0.02363622 C6.65039508 -0.0436045 10.14411745 -0.02777173 13.63893127 -0.01205444 C16.14222348 -0.0188284 18.6455107 -0.02773028 21.14878845 -0.03860474 C27.24567422 -0.05906019 33.34213382 -0.05603456 39.43900304 -0.04154153 C44.39452201 -0.03024943 49.34995473 -0.02871824 54.30548286 -0.03416061 C55.01079019 -0.03492678 55.71609752 -0.03569294 56.4427778 -0.03648233 C57.87561077 -0.03808096 59.30844371 -0.03970202 60.74127663 -0.04134528 C74.17800708 -0.05560398 87.614567 -0.03920879 101.05126948 -0.01234345 C112.57845964 0.00999065 124.10539801 0.00611941 135.63258362 -0.01693726 C149.01967564 -0.04370159 162.40661813 -0.05422556 175.79373318 -0.03887594 C177.22159991 -0.0372832 178.64946667 -0.03571135 180.07733345 -0.03416061 C181.13112681 -0.03300355 181.13112681 -0.03300355 182.20620893 -0.03182311 C187.15477638 -0.02750762 192.10324893 -0.03478945 197.05180168 -0.04655838 C203.71431428 -0.06205523 210.37627805 -0.05100442 217.03876877 -0.0220871 C219.48571927 -0.01546918 221.93270974 -0.01738588 224.37964439 -0.02840042 C227.71685522 -0.04203866 231.05253547 -0.02495849 234.38964844 0 C235.84660469 -0.01673041 235.84660469 -0.01673041 237.3329944 -0.03379881 C241.72438856 0.03002507 244.84365207 0.21821634 248.39854527 2.95194435 C250.75831604 5.63491821 250.75831604 5.63491821 250.88331604 9.19741821 C249.6210914 13.05421573 249.04878086 14.30458329 245.75831604 16.63491821 C242.37224489 17.23949185 239.01719301 17.17404442 235.58546448 17.14285278 C234.53947964 17.14909275 233.4934948 17.15533271 232.41581345 17.16176176 C228.89954554 17.17775774 225.38396449 17.16506121 221.86769104 17.15249634 C219.35145156 17.15791449 216.83521525 17.16503542 214.31898499 17.17373657 C208.18727001 17.19011008 202.05581075 17.18767564 195.92409229 17.17608601 C190.94136764 17.16705749 185.95869789 17.16582515 180.97596741 17.17018127 C180.26717178 17.17079421 179.55837615 17.17140714 178.82810187 17.17203864 C177.38825892 17.17331753 175.94841598 17.17461438 174.50857306 17.17592901 C161.00278219 17.18733895 147.49709987 17.17421465 133.99132681 17.15272754 C122.39927927 17.13485615 110.80739194 17.13796014 99.21534729 17.15640259 C85.75834642 17.17780203 72.30144071 17.18624028 58.8444252 17.17395353 C57.40983837 17.17267932 55.97525153 17.17142184 54.54066467 17.17018127 C53.83479524 17.16956417 53.12892581 17.16894707 52.4016664 17.16831127 C47.42413155 17.16485557 42.44665699 17.17069141 37.46913147 17.18009949 C30.77141393 17.19248048 24.07404627 17.18368319 17.37634277 17.16052246 C14.91403712 17.15522044 12.45170605 17.15677448 9.9894104 17.16557312 C6.63631472 17.17645279 3.28420023 17.16285575 -0.0688324 17.14285278 C-1.54138678 17.15623711 -1.54138678 17.15623711 -3.04368973 17.16989183 C-9.59281417 17.09375464 -9.59281417 17.09375464 -12.81108093 14.81801605 C-14.88729157 11.64972207 -15.30802177 9.41617334 -15.24168396 5.63491821 C-11.0689798 -0.37176179 -6.71847436 -0.07697231 0 0 Z " fill="#C9CDD6" transform="translate(132.24168395996094,116.36508178710938)"/>
<path d="M0 0 C3.94957008 1.83797764 6.89294084 4.60077359 10.09375 7.51953125 C11.39514814 8.6830585 12.69721736 9.84583566 14 11.0078125 C14.85561523 11.78378784 14.85561523 11.78378784 15.72851562 12.57543945 C17.63140374 14.32034735 17.63140374 14.32034735 20.17485046 15.86753845 C22.59375 18.20703125 22.59375 18.20703125 23.19502258 21.42144775 C23.18391953 22.69163757 23.17281647 23.96182739 23.16137695 25.27050781 C23.16210709 25.973349 23.16283722 26.67619019 23.16358948 27.40032959 C23.1601138 29.71689813 23.12125908 32.03144033 23.08203125 34.34765625 C23.07270292 35.95618593 23.0655869 37.56472983 23.06059265 39.17327881 C23.04152407 43.40197133 22.99242551 47.62980181 22.93707275 51.8581543 C22.87687172 56.93411443 22.85396325 62.01036322 22.82480621 67.08657837 C22.77635921 74.79399509 22.68054628 82.49952132 22.59375 90.20703125 C7.41375 90.20703125 -7.76625 90.20703125 -23.40625 90.20703125 C-24.00788214 72.75969919 -24.00788214 72.75969919 -24.13867188 65.24804688 C-24.22793002 60.14610089 -24.33276746 55.04823916 -24.5378418 49.94946289 C-25.70607565 20.13672418 -25.70607565 20.13672418 -20.21142578 13.18115234 C-17.21567139 10.26929289 -13.99332923 8.14081126 -10.28311157 6.24440002 C-8.31487628 5.15652766 -6.75769001 3.91665297 -5.06811523 2.43798828 C-2.40625 0.20703125 -2.40625 0.20703125 0 0 Z " fill="#E6E9ED" transform="translate(250.40625,385.79296875)"/>
<path d="M0 0 C3.38105608 1.52605997 6.62230107 3.28184328 9.875 5.0625 C10.75414062 5.53494141 11.63328125 6.00738281 12.5390625 6.49414062 C14.69695524 7.65518074 16.85027708 8.82392268 19 10 C19.28928343 20.57105932 17.51255778 28.27224476 10.0625 36.171875 C5.89995571 39.86140289 1.12163735 43.56521796 -4.49609375 44.34765625 C-11.14927507 43.42389161 -17.68401851 37.15959587 -21.75 32.0078125 C-26.18097281 24.89056243 -27.26495351 18.2135587 -27 10 C-23.87517628 8.35383182 -20.75011114 6.70812246 -17.625 5.0625 C-16.29082031 4.35963867 -16.29082031 4.35963867 -14.9296875 3.64257812 C-14.07890625 3.19462891 -13.228125 2.74667969 -12.3515625 2.28515625 C-11.56604004 1.87144775 -10.78051758 1.45773926 -9.97119141 1.03149414 C-5.98018638 -1.0569374 -4.51321054 -1.13587514 0 0 Z " fill="#FCC62B" transform="translate(254,57)"/>
<path d="M0 0 C5.69274037 1.78222571 10.97073628 4.23463956 16.3671875 6.7578125 C24.59475146 9.57110856 29.89631032 7.64693929 37.375 4 C38.96476879 3.2470855 40.55585323 2.4969407 42.1484375 1.75 C42.84114746 1.41484375 43.53385742 1.0796875 44.24755859 0.734375 C46 0 46 0 48 0 C48.64715133 2.0829243 49.29267166 4.16635539 49.9375 6.25 C50.47697266 7.99023438 50.47697266 7.99023438 51.02734375 9.765625 C51.34832031 10.83296875 51.66929687 11.9003125 52 13 C52.23507767 13.66433044 52.47015533 14.32866089 52.71235657 15.01312256 C52.8072789 15.66879211 52.90220123 16.32446167 53 17 C51.08977315 19.38235077 49.22384516 21.40442612 47.04296875 23.515625 C46.11572746 24.4393692 46.11572746 24.4393692 45.16975403 25.3817749 C43.85980803 26.68197098 42.5438402 27.97612364 41.22241211 29.26464844 C39.1938481 31.24380651 37.18456389 33.24101796 35.17773438 35.2421875 C33.90473471 36.50110201 32.63068093 37.7589517 31.35546875 39.015625 C30.75018845 39.6155426 30.14490814 40.21546021 29.52128601 40.83355713 C25.23321782 45 25.23321782 45 23 45 C21.484375 43.42578125 21.484375 43.42578125 19.75 41.3125 C17.58102826 38.75365111 15.59275827 36.66063189 13 34.5 C10.53747594 32.44789662 8.67653293 30.54785111 6.625 28.125 C3.10041652 23.97750355 -0.82065274 20.47374318 -5 17 C-4.80664062 16.35933594 -4.61328125 15.71867187 -4.4140625 15.05859375 C-2.9059252 10.04889015 -1.42282214 5.03460143 0 0 Z " fill="#EBCDB3" transform="translate(226,319)"/>
<path d="M0 0 C5.28 0 10.56 0 16 0 C16.37125 1.381875 16.7425 2.76375 17.125 4.1875 C18.75004042 9.12482376 20.74489133 11.10290473 25 14 C28.07194908 15.53597454 30.60244293 15.2265038 34 15 C37.25058324 13.58376759 37.25058324 13.58376759 40 12 C40.66 12 41.32 12 42 12 C44.08379509 8.15299368 45.49686624 4.09945571 47 0 C51.95 0 56.9 0 62 0 C61.67577602 7.67330092 60.2590862 12.62404655 56 19 C55.401875 19.9075 54.80375 20.815 54.1875 21.75 C47.72045517 28.40181753 39.95838555 31.27375256 30.75 31.4375 C23.6539964 31.34000829 18.83982015 29.9737122 13 26 C12.41734375 25.61585938 11.8346875 25.23171875 11.234375 24.8359375 C5.03810642 20.23567749 1.51507103 13.43762143 0 6 C0 4.02 0 2.04 0 0 Z " fill="#070504" transform="translate(219,250)"/>
<path d="M0 0 C10.23 0 20.46 0 31 0 C31 10.23 31 20.46 31 31 C26.813125 31.103125 22.62625 31.20625 18.3125 31.3125 C17.00063721 31.35802002 15.68877441 31.40354004 14.3371582 31.45043945 C9.54425922 31.50781063 6.00118686 31.51003859 1.6875 29.3125 C-1.05125234 23.93643059 -0.51810074 18.61280413 -0.3125 12.6875 C-0.209375 8.500625 -0.10625 4.31375 0 0 Z " fill="#F8D572" transform="translate(297,344)"/>
<path d="M0 0 C10.23 0 20.46 0 31 0 C31.103125 4.186875 31.20625 8.37375 31.3125 12.6875 C31.38078003 14.65529419 31.38078003 14.65529419 31.45043945 16.6628418 C31.50781063 21.45574078 31.51003859 24.99881314 29.3125 29.3125 C23.93643059 32.05125234 18.61280413 31.51810074 12.6875 31.3125 C8.500625 31.209375 4.31375 31.10625 0 31 C0 20.77 0 10.54 0 0 Z " fill="#FBD66F" transform="translate(172,344)"/>
<path d="M0 0 C4.186875 -0.0825 8.37375 -0.165 12.6875 -0.25 C13.99936279 -0.28641602 15.31122559 -0.32283203 16.6628418 -0.36035156 C17.70609619 -0.3703418 18.74935059 -0.38033203 19.82421875 -0.390625 C20.88729248 -0.41157227 21.95036621 -0.43251953 23.0456543 -0.45410156 C26.79635499 0.12240478 28.41536989 1.24611197 31 4 C31.61523438 6.41015625 31.61523438 6.41015625 31.59375 9.0625 C31.59117187 10.02414062 31.58859375 10.98578125 31.5859375 11.9765625 C31.54339844 13.47316406 31.54339844 13.47316406 31.5 15 C31.50386719 16.49660156 31.50386719 16.49660156 31.5078125 18.0234375 C31.39519303 26.42484974 31.39519303 26.42484974 28 30 C24.82212459 31.0592918 22.57411057 31.11458939 19.23828125 31.09765625 C17.72681519 31.09390991 17.72681519 31.09390991 16.18481445 31.09008789 C14.2680188 31.07643188 14.2680188 31.07643188 12.3125 31.0625 C6.2178125 31.0315625 6.2178125 31.0315625 0 31 C0 20.77 0 10.54 0 0 Z " fill="#F8D573" transform="translate(375,344)"/>
<path d="M0 0 C4.186875 0.103125 8.37375 0.20625 12.6875 0.3125 C12.6875 10.5425 12.6875 20.7725 12.6875 31.3125 C8.500625 31.415625 4.31375 31.51875 0 31.625 C-1.31186279 31.67052002 -2.62372559 31.71604004 -3.9753418 31.76293945 C-12.33949998 31.86305873 -12.33949998 31.86305873 -16.60546875 29.44921875 C-19.0893543 24.88500801 -19.04312127 20.93161107 -18.9375 15.8125 C-18.95683594 14.87535156 -18.97617188 13.93820312 -18.99609375 12.97265625 C-18.9659155 8.71752265 -18.65924844 5.94966017 -16.60546875 2.17578125 C-11.29020158 -0.83178985 -5.97926959 -0.20747327 0 0 Z " fill="#F8D573" transform="translate(112.3125,343.6875)"/>
<path d="M0 0 C15.51 0 31.02 0 47 0 C47 5.28 47 10.56 47 16 C31.49 16 15.98 16 0 16 C0 10.72 0 5.44 0 0 Z " fill="#060608" transform="translate(305,445)"/>
<path d="M0 0 C0.01458252 0.69335449 0.02916504 1.38670898 0.04418945 2.10107422 C0.37664661 16.31332418 1.13616828 30.0590833 4 44 C-3.62198817 42.92021834 -7.78595716 39.57594748 -12.703125 33.87890625 C-16.74611259 28.02144531 -16.7065273 21.87746199 -16 15 C-14.24665265 8.69004936 -10.23557628 4.72680183 -5 1 C-3 0 -3 0 0 0 Z " fill="#E9CCB3" transform="translate(149,182)"/>
<path d="M0 0 C5.88398542 2.21022802 10.16888267 5.11323344 13.375 10.5625 C16.03577923 16.47658492 16.06243802 23.08890005 14.375 29.30078125 C11.60709668 35.66448755 6.2913201 40.31776973 0.1875 43.4375 C-2 44 -2 44 -5 44 C-4.80664062 43.00226563 -4.61328125 42.00453125 -4.4140625 40.9765625 C-1.90985555 27.39425932 -0.89128396 13.77089724 0 0 Z " fill="#E8CCB3" transform="translate(352,182)"/>
<path d="M0 0 C3.72617422 1.24205807 5.39291457 3.1110675 8 6 C8 6.66 8 7.32 8 8 C8.556875 8.20625 9.11375 8.4125 9.6875 8.625 C11.94696811 9.96846753 12.9998656 11.05157702 14.625 13.0625 C16.67119397 16.00824713 16.67119397 16.00824713 19 17 C19 17.99 19 18.98 19 20 C17.5234375 21.40234375 17.5234375 21.40234375 15.375 22.9375 C10.38350839 26.63958887 5.71522786 30.6366545 1.05029297 34.73608398 C-2.47847524 37.80507946 -6.05220301 40.48994395 -10 43 C-11.19111569 38.65882628 -11.86716057 34.46547171 -11 30 C-8.25 27.625 -8.25 27.625 -6.59765625 26.47265625 C-0.44490239 20.80129145 -0.44324416 10.40137079 -0.078125 2.67578125 C-0.05234375 1.79277344 -0.0265625 0.90976562 0 0 Z " fill="#C7CAD1" transform="translate(219,356)"/>
<path d="M0 0 C0.02578125 0.97839844 0.0515625 1.95679688 0.078125 2.96484375 C0.51893293 13.15351801 1.77627802 21.29469656 9 29 C9.66 29.33 10.32 29.66 11 30 C11.05447047 31.41623216 11.09300508 32.83308191 11.125 34.25 C11.14820313 35.03890625 11.17140625 35.8278125 11.1953125 36.640625 C10.9828378 39.20731941 10.28654105 40.7916067 9 43 C8.47792969 42.52691406 7.95585937 42.05382812 7.41796875 41.56640625 C3.17144254 37.75122596 -1.13236962 34.03852776 -5.5625 30.4375 C-8.9599981 27.67164943 -12.35198585 24.90299085 -15.6875 22.0625 C-16.33074219 21.51722656 -16.97398437 20.97195313 -17.63671875 20.41015625 C-19 19 -19 19 -19 17 C-17.4609375 15.51953125 -17.4609375 15.51953125 -15.375 13.8125 C-11.97969585 10.93908889 -9.13994157 7.9353515 -6.31640625 4.51171875 C-2.3875969 0 -2.3875969 0 0 0 Z " fill="#C9CCD4" transform="translate(281,356)"/>
<path d="M0 0 C4.95 0 9.9 0 15 0 C15 10.23 15 20.46 15 31 C10.05 31 5.1 31 0 31 C0 20.77 0 10.54 0 0 Z " fill="#F9C633" transform="translate(344,344)"/>
<path d="M0 0 C4.95 0 9.9 0 15 0 C15 10.23 15 20.46 15 31 C10.05 31 5.1 31 0 31 C0 20.77 0 10.54 0 0 Z " fill="#F9C633" transform="translate(141,344)"/>
<path d="M0 0 C1.04557798 -0.00427212 2.09115595 -0.00854425 3.16841811 -0.01294583 C6.67730289 -0.02119162 10.18499643 0.00633713 13.69377136 0.03364563 C16.20679191 0.03505575 18.71981452 0.03426484 21.23283386 0.03143311 C26.64589445 0.03029396 32.05857039 0.04448882 37.4715519 0.0726223 C45.29770701 0.11327153 53.12371644 0.12628093 60.94996568 0.13256226 C73.64769057 0.14350324 86.34525479 0.17677203 99.04289246 0.22407532 C111.37686866 0.26997603 123.7108012 0.30536541 136.04484558 0.32661438 C136.80521584 0.327928 137.56558609 0.32924161 138.34899787 0.33059504 C142.16358259 0.33712026 145.97816762 0.3434388 149.79275286 0.34965456 C181.43460018 0.40148146 213.07624575 0.48991318 244.71794128 0.60127258 C244.71794128 0.93127258 244.71794128 1.26127258 244.71794128 1.60127258 C243.41350224 1.59905197 242.10906321 1.59683136 240.76509571 1.59454346 C209.80962496 1.54362871 178.85444632 1.53388489 147.89897128 1.57493222 C144.09001176 1.57994693 140.28105189 1.58461375 136.47209167 1.58906555 C135.71378707 1.58995768 134.95548248 1.59084981 134.17419895 1.59176898 C121.89110604 1.60538992 109.60819979 1.59081973 97.32513163 1.56585562 C84.72424147 1.54087217 72.12362639 1.5461272 59.52275437 1.57953167 C51.74533175 1.59919388 43.96865719 1.5951884 36.19128164 1.56103629 C30.23045829 1.53738578 24.27023367 1.5557795 18.30944633 1.59000969 C15.86207442 1.59744454 13.41461739 1.59113932 10.9673233 1.57025337 C7.63089958 1.54381065 4.29829801 1.56629546 0.96203613 1.60127258 C-0.01170053 1.5818608 -0.98543719 1.56244902 -1.98868102 1.542449 C-4.65924997 1.60038833 -6.76237528 1.70923302 -9.28205872 2.60127258 C-11.53347439 5.04089689 -12.84506692 7.63684556 -14.28205872 10.60127258 C-14.61205872 10.60127258 -14.94205872 10.60127258 -15.28205872 10.60127258 C-15.77703317 7.13645141 -15.46325003 5.85595775 -13.40515614 2.96307087 C-8.96024149 -0.39833301 -5.43491916 -0.08096671 0 0 Z " fill="#A0A1A6" transform="translate(132.2820587158203,116.39872741699219)"/>
<path d="M0 0 C5.28 0 10.56 0 16 0 C16 5.28 16 10.56 16 16 C10.72 16 5.44 16 0 16 C0 10.72 0 5.44 0 0 Z " fill="#0C0D0E" transform="translate(242,445)"/>
<path d="M0 0 C5.28 0 10.56 0 16 0 C16 5.28 16 10.56 16 16 C10.72 16 5.44 16 0 16 C0 10.72 0 5.44 0 0 Z " fill="#0D0D0E" transform="translate(242,414)"/>
<path d="M0 0 C2.75 1.375 2.75 1.375 5.75 3.375 C5.48129039 9.42096616 4.82286979 13.60392396 0.75 18.375 C-1.5 19.75 -1.5 19.75 -3.25 20.375 C-8.34389457 14.47680629 -10.5615955 11.47648299 -10.25 3.375 C-4.1212522 -0.7925485 -4.1212522 -0.7925485 0 0 Z " fill="#EECE72" transform="translate(174.25,446.625)"/>
<path d="M0 0 C2.5625 1.5625 2.5625 1.5625 4 4 C4 7.92941056 3.55584616 10.1971111 1.3125 13.4375 C-1.77733292 15.52522494 -3.3380808 15.6725974 -7 15 C-10.36344489 12.51397551 -11.80057749 11.08574477 -12.5625 6.9375 C-12 4 -12 4 -10.5 1.625 C-6.98827684 -0.65762005 -4.07600894 -0.80853347 0 0 Z " fill="#0F0A08" transform="translate(301,196)"/>
<path d="M0 0 C2.5 1.625 2.5 1.625 4 4 C4.5625 6.9375 4.5625 6.9375 4 10 C1.54853142 13.31669279 0.04375441 14.76080628 -4 15.6875 C-7 15 -7 15 -9.9375 12.375 C-12 9 -12 9 -12 5.8125 C-9.82489458 -0.30498399 -6.3118545 -1.13029185 0 0 Z " fill="#0D0907" transform="translate(207,196)"/>
<path d="M0 0 C10.23 0 20.46 0 31 0 C31.103125 4.186875 31.20625 8.37375 31.3125 12.6875 C31.38078003 14.65529419 31.38078003 14.65529419 31.45043945 16.6628418 C31.50781063 21.45574078 31.51003859 24.99881314 29.3125 29.3125 C23.93643059 32.05125234 18.61280413 31.51810074 12.6875 31.3125 C8.500625 31.209375 4.31375 31.10625 0 31 C0 20.77 0 10.54 0 0 Z M1 1 C1 10.24 1 19.48 1 29 C7.0946875 29.061875 7.0946875 29.061875 13.3125 29.125 C15.22929565 29.15231201 15.22929565 29.15231201 17.18481445 29.18017578 C18.69628052 29.18766846 18.69628052 29.18766846 20.23828125 29.1953125 C21.7857605 29.21102295 21.7857605 29.21102295 23.36450195 29.22705078 C26.23187592 29.19297515 26.23187592 29.19297515 29 27 C29.41737872 24.28516406 29.41737872 24.28516406 29.29296875 21.1171875 C29.28547607 20.06644043 29.2779834 19.01569336 29.27026367 17.93310547 C29.24295166 16.59393066 29.21563965 15.25475586 29.1875 13.875 C29.125625 9.62625 29.06375 5.3775 29 1 C19.76 1 10.52 1 1 1 Z " fill="#E8CE84" transform="translate(172,344)"/>
<path d="M0 0 C2.64 1.32 5.28 2.64 8 4 C8.5599352 13.79886602 6.84230407 20.95001042 0.4375 28.5625 C-1.81134115 31.05175179 -2.75101954 31.91700651 -6 33 C-5.67 32.21625 -5.34 31.4325 -5 30.625 C-3.88133489 28.15667503 -3.88133489 28.15667503 -4 26 C-4.268125 25.401875 -4.53625 24.80375 -4.8125 24.1875 C-4.874375 23.465625 -4.93625 22.74375 -5 22 C-2.5625 19.25 -2.5625 19.25 0 17 C0.66 17.99 1.32 18.98 2 20 C2.66 19.01 3.32 18.02 4 17 C4.66 17 5.32 17 6 17 C6 13.04 6 9.08 6 5 C5.34 5 4.68 5 4 5 C4 4.34 4 3.68 4 3 C2.68 2.67 1.36 2.34 0 2 C0 1.34 0 0.68 0 0 Z " fill="#F8C330" transform="translate(265,63)"/>
<path d="M0 0 C0 19.47 0 38.94 0 59 C-8.25 59 -16.5 59 -25 59 C-24.67 58.34 -24.34 57.68 -24 57 C-16.41 57.33 -8.82 57.66 -1 58 C-1.06867474 50.48827345 -1.15654251 42.97711436 -1.26245117 35.46582031 C-1.29576957 32.90891799 -1.32377965 30.3519409 -1.34643555 27.79492188 C-1.37985423 24.12597691 -1.43216412 20.45772159 -1.48828125 16.7890625 C-1.49467117 15.64007477 -1.5010611 14.49108704 -1.50764465 13.30728149 C-1.52743881 12.2463327 -1.54723297 11.18538391 -1.56762695 10.09228516 C-1.57873001 9.15518707 -1.58983307 8.21808899 -1.60127258 7.25259399 C-1.73285263 6.50923798 -1.86443268 5.76588196 -2 5 C-2.99 4.34 -3.98 3.68 -5 3 C-1.125 0 -1.125 0 0 0 Z " fill="#94979F" transform="translate(211,418)"/>
<path d="M0 0 C4.26545811 1.70618324 6.69665125 2.97979542 10 6 C10 6.66 10 7.32 10 8 C8.71086513 8.67154933 7.41859796 9.33708859 6.125 10 C5.40570313 10.37125 4.68640625 10.7425 3.9453125 11.125 C2 12 2 12 0 12 C0 8.04 0 4.08 0 0 Z " fill="#A37A58" transform="translate(133,159)"/>
<path d="M0 0 C0 3.96 0 7.92 0 12 C-3.48670834 10.8905928 -6.77484237 9.73662334 -10 8 C-8.89904638 4.69713914 -8.3103981 4.21489099 -5.5625 2.3125 C-4.94503906 1.87550781 -4.32757813 1.43851563 -3.69140625 0.98828125 C-2 0 -2 0 0 0 Z " fill="#AB7D55" transform="translate(367,159)"/>
<path d="M0 0 C0.33 0 0.66 0 1 0 C1.01981934 0.7113208 1.03963867 1.4226416 1.06005859 2.15551758 C1.15524867 5.37488816 1.26495229 8.5936045 1.375 11.8125 C1.4059375 12.93205078 1.436875 14.05160156 1.46875 15.20507812 C1.50742187 16.27822266 1.54609375 17.35136719 1.5859375 18.45703125 C1.6173584 19.44678955 1.6487793 20.43654785 1.68115234 21.45629883 C1.83773433 24.24075094 1.83773433 24.24075094 4 27 C6.61196291 27.51012565 6.61196291 27.51012565 9.6640625 27.51171875 C10.78554688 27.54716797 11.90703125 27.58261719 13.0625 27.61914062 C14.238125 27.64169922 15.41375 27.66425781 16.625 27.6875 C17.80835938 27.72166016 18.99171875 27.75582031 20.2109375 27.79101562 C23.1405306 27.87370575 26.0698164 27.94278714 29 28 C29 28.33 29 28.66 29 29 C24.54172074 29.0578304 20.0835372 29.09353855 15.625 29.125 C14.35398437 29.14175781 13.08296875 29.15851563 11.7734375 29.17578125 C10.56171875 29.18222656 9.35 29.18867188 8.1015625 29.1953125 C6.98088379 29.20578613 5.86020508 29.21625977 4.70556641 29.22705078 C2 29 2 29 0 27 C-0.22705078 24.29443359 -0.22705078 24.29443359 -0.1953125 20.8984375 C-0.18886719 19.68671875 -0.18242187 18.475 -0.17578125 17.2265625 C-0.15902344 15.95554687 -0.14226562 14.68453125 -0.125 13.375 C-0.11146484 11.456875 -0.11146484 11.456875 -0.09765625 9.5 C-0.07402303 6.33314833 -0.04107629 3.16666576 0 0 Z " fill="#F3D67D" transform="translate(298,345)"/>
<path d="M0 0 C0 8.25 0 16.5 0 25 C-0.33 25 -0.66 25 -1 25 C-1 17.74 -1 10.48 -1 3 C-2.98 4.32 -4.96 5.64 -7 7 C-10.00965888 8.00321963 -11.25381397 8.34460228 -14.1484375 7.0078125 C-14.75945312 6.67523438 -15.37046875 6.34265625 -16 6 C-15.08476562 5.65066406 -14.16953125 5.30132812 -13.2265625 4.94140625 C-12.03804688 4.48636719 -10.84953125 4.03132812 -9.625 3.5625 C-8.44164062 3.11003906 -7.25828125 2.65757812 -6.0390625 2.19140625 C-0.44918033 0 -0.44918033 0 0 0 Z " fill="#CBB7A6" transform="translate(336,178)"/>
<path d="M0 0 C3.96 1.98 3.96 1.98 8 4 C8.44143498 11.72511213 7.3232837 17.02703866 4 24 C3.67 24 3.34 24 3 24 C3 22.02 3 20.04 3 18 C3.99 17.67 4.98 17.34 6 17 C6 13.04 6 9.08 6 5 C5.34 5 4.68 5 4 5 C4 4.34 4 3.68 4 3 C2.68 2.67 1.36 2.34 0 2 C0 1.34 0 0.68 0 0 Z " fill="#E3BD46" transform="translate(265,63)"/>
<path d="M0 0 C0 4.62 0 9.24 0 14 C-0.33 14 -0.66 14 -1 14 C-1.33 11.36 -1.66 8.72 -2 6 C-2.928125 6 -3.85625 6 -4.8125 6 C-6.875 6 -8.9375 6 -11 6 C-9.73608512 4.99126984 -8.46359117 3.99328178 -7.1875 3 C-6.47980469 2.443125 -5.77210938 1.88625 -5.04296875 1.3125 C-3 0 -3 0 0 0 Z " fill="#B7A495" transform="translate(149,182)"/>
<path d="M0 0 C-0.33 0.66 -0.66 1.32 -1 2 C0.98 2 2.96 2 5 2 C5 2.66 5 3.32 5 4 C5.66 4.33 6.32 4.66 7 5 C2.66666667 5 -1.66666667 5 -6 5 C-6.33 5.66 -6.66 6.32 -7 7 C-7.33 5.35 -7.66 3.7 -8 2 C-8.99 1.67 -9.98 1.34 -11 1 C-7.26513121 0.4254048 -3.78706732 0 0 0 Z " fill="#C9B29F" transform="translate(297,192)"/>
<path d="M0 0 C0.99 0.33 1.98 0.66 3 1 C2.67 1.99 2.34 2.98 2 4 C2.66 4 3.32 4 4 4 C4.33 2.68 4.66 1.36 5 0 C5.99 0 6.98 0 8 0 C8.33 2.31 8.66 4.62 9 7 C4.78087253 6.5205537 2.20336822 5.83374881 -1 3 C-0.67 2.01 -0.34 1.02 0 0 Z " fill="#DBC3B0" transform="translate(144,219)"/>
<path d="M0 0 C2.625 0.9375 2.625 0.9375 5 2 C4.01 2.495 4.01 2.495 3 3 C3 3.99 3 4.98 3 6 C3.66 6 4.32 6 5 6 C4.67 6.99 4.34 7.98 4 9 C1.03 7.02 -1.94 5.04 -5 3 C-2 1 -2 1 0 0 Z " fill="#E2C8B2" transform="translate(219,290)"/>
<path d="M0 0 C0.33 0.99 0.66 1.98 1 3 C-1.97 5.97 -4.94 8.94 -8 12 C-8.66 11.01 -9.32 10.02 -10 9 C-9 7 -9 7 -6.5 6.125 C-5.2625 5.568125 -5.2625 5.568125 -4 5 C-3.34786708 2.97536745 -3.34786708 2.97536745 -3 1 C-2.01 0.67 -1.02 0.34 0 0 Z " fill="#D1BBA5" transform="translate(264,347)"/>
<path d="M0 0 C0.33 0 0.66 0 1 0 C1 3.96 1 7.92 1 12 C2.32 11.67 3.64 11.34 5 11 C4.67 11.99 4.34 12.98 4 14 C3.01 14.33 2.02 14.66 1 15 C0.34 14.67 -0.32 14.34 -1 14 C-1.02685938 11.85423363 -1.04633088 9.70837355 -1.0625 7.5625 C-1.07410156 6.36753906 -1.08570313 5.17257813 -1.09765625 3.94140625 C-1 1 -1 1 0 0 Z " fill="#1D0C04" transform="translate(132,159)"/>
<path d="M0 0 C0.33 1.32 0.66 2.64 1 4 C-0.32 4.33 -1.64 4.66 -3 5 C-3 6.32 -3 7.64 -3 9 C-1.68 9.33 -0.36 9.66 1 10 C-2 11 -2 11 -5.1875 9.5625 C-6.115625 9.046875 -7.04375 8.53125 -8 8 C-6.88333826 4.65001479 -6.25305075 4.20659778 -3.4375 2.3125 C-2.79683594 1.87550781 -2.15617187 1.43851563 -1.49609375 0.98828125 C-1.00238281 0.66214844 -0.50867188 0.33601562 0 0 Z " fill="#987353" transform="translate(365,159)"/>
<path d="M0 0 C1.98 0.495 1.98 0.495 4 1 C4 1.99 4 2.98 4 4 C3.01 4.33 2.02 4.66 1 5 C0.67 7.97 0.34 10.94 0 14 C-0.33 14 -0.66 14 -1 14 C-1.02694851 12.04174127 -1.04637218 10.08337774 -1.0625 8.125 C-1.07410156 7.03445312 -1.08570313 5.94390625 -1.09765625 4.8203125 C-1 2 -1 2 0 0 Z " fill="#EFD1B9" transform="translate(353,186)"/>
<path d="M0 0 C-1.45044271 4.10958767 -3.51110752 7.43258745 -6 11 C-6.66 10.67 -7.32 10.34 -8 10 C-7.7312159 6.05783322 -7.44655191 4.43510186 -4.5625 1.625 C-2 0 -2 0 0 0 Z " fill="#90969E" transform="translate(366,84)"/>
<path d="M0 0 C0 0.33 0 0.66 0 1 C-2.64 1.33 -5.28 1.66 -8 2 C-7.67 3.32 -7.34 4.64 -7 6 C-9.97 5.67 -12.94 5.34 -16 5 C-10.75789281 0.76599035 -6.79797404 -1.78042177 0 0 Z " fill="#DDB440" transform="translate(254,57)"/>
<path d="M0 0 C1.8125 0.1875 1.8125 0.1875 4 1 C4.474375 1.804375 4.94875 2.60875 5.4375 3.4375 C7.3204534 6.52554358 8.70333534 6.78543934 12 8 C12.33 8.99 12.66 9.98 13 11 C7.71860321 9.51460715 3.71945899 5.91327696 0 2 C0 1.34 0 0.68 0 0 Z " fill="#E6BD46" transform="translate(233,88)"/>
<path d="M0 0 C1.70884005 1.62339805 3.37446717 3.29319053 5 5 C5 5.66 5 6.32 5 7 C6.32 7.33 7.64 7.66 9 8 C7.02 8.99 7.02 8.99 5 10 C0.125 4.375 0.125 4.375 -1 1 C-0.67 0.67 -0.34 0.34 0 0 Z " fill="#E2CB78" transform="translate(166,457)"/>
<path d="M0 0 C-1.5625 2 -1.5625 2 -4 4 C-7.75 4.25 -7.75 4.25 -11 4 C-9.37064584 1.34158005 -8.51624223 0.16777872 -5.5 -0.8125 C-3 -1 -3 -1 0 0 Z " fill="#E2C8B2" transform="translate(305,191)"/>
<path d="M0 0 C3.3 0.33 6.6 0.66 10 1 C6.38709677 4.61290323 6.38709677 4.61290323 3 5 C0.99053778 4.72949547 -1.01354224 4.40632091 -3 4 C-2.01 3.34 -1.02 2.68 0 2 C0 1.34 0 0.68 0 0 Z " fill="#CCB4A0" transform="translate(204,192)"/>
<path d="M0 0 C0 0.66 0 1.32 0 2 C-0.99 2.495 -0.99 2.495 -2 3 C-2.46898963 5.8159849 -2.46898963 5.8159849 -2.625 9.0625 C-2.69976562 10.16722656 -2.77453125 11.27195312 -2.8515625 12.41015625 C-2.90054688 13.26480469 -2.94953125 14.11945313 -3 15 C-4.7072444 12.02082452 -5.29529611 9.80430948 -5.3125 6.375 C-5.32925781 5.59898438 -5.34601563 4.82296875 -5.36328125 4.0234375 C-5.24339844 3.35570313 -5.12351563 2.68796875 -5 2 C-2 0 -2 0 0 0 Z " fill="#E6BE4D" transform="translate(232,65)"/>
<path d="M0 0 C0 1.98 0 3.96 0 6 C-2.62187494 4.95125002 -3.79371361 4.35068687 -5.25 1.875 C-5.4975 1.25625 -5.745 0.6375 -6 0 C-3.50907189 -1.24546405 -2.58919267 -0.7767578 0 0 Z " fill="#C1C5C9" transform="translate(268,373)"/>
<path d="M0 0 C3.37503669 1.1858237 5.64722731 2.27573689 8 5 C5 6 5 6 2.8125 5.0625 C2.214375 4.711875 1.61625 4.36125 1 4 C0.67 4.66 0.34 5.32 0 6 C0 4.02 0 2.04 0 0 Z " fill="#D9C3B1" transform="translate(352,182)"/>
<path d="M0 0 C5.75 1.75 5.75 1.75 8 4 C7.01 5.485 7.01 5.485 6 7 C5.34 6.01 4.68 5.02 4 4 C2.68 4.33 1.36 4.66 0 5 C0 3.35 0 1.7 0 0 Z " fill="#DDC7B3" transform="translate(226,319)"/>
<path d="M0 0 C-1.28062485 1.7074998 -2.61767557 3.37373596 -4 5 C-4.66 5 -5.32 5 -6 5 C-6.66 3.68 -7.32 2.36 -8 1 C-5.07175348 0.02391783 -3.04386724 -0.08226668 0 0 Z " fill="#CBB8A9" transform="translate(255,359)"/>
<path d="M0 0 C0.99 0.495 0.99 0.495 2 1 C2 1.66 2 2.32 2 3 C2.66 3 3.32 3 4 3 C4.33 3.99 4.66 4.98 5 6 C3.35 6.33 1.7 6.66 0 7 C0 4.69 0 2.38 0 0 Z " fill="#B17846" transform="translate(134,161)"/>
<path d="M0 0 C1.50539661 0.94983358 3.00420347 1.91011891 4.5 2.875 C5.75296875 3.67550781 5.75296875 3.67550781 7.03125 4.4921875 C7.6809375 4.98976562 8.330625 5.48734375 9 6 C9 6.66 9 7.32 9 8 C5.08158173 6.69386058 2.67359191 5.16870152 0 2 C0 1.34 0 0.68 0 0 Z " fill="#977150" transform="translate(134,159)"/>
<path d="M0 0 C0 3 0 3 -1.25 4.75 C-3 6 -3 6 -5.1875 5.6875 C-5.785625 5.460625 -6.38375 5.23375 -7 5 C-2.25 1.125 -2.25 1.125 0 0 Z " fill="#8F969D" transform="translate(143,63)"/>
<path d="M0 0 C0.66 0 1.32 0 2 0 C1.45912682 3.78611227 -0.11722332 5.55400767 -3 8 C-3.66 8 -4.32 8 -5 8 C-4.34 6.35 -3.68 4.7 -3 3 C-2.01 3 -1.02 3 0 3 C0 2.01 0 1.02 0 0 Z " fill="#E9C13F" transform="translate(264,88)"/>
<path d="M0 0 C0 3.5595477 -0.61579539 4.44549506 -3 7 C-5.1875 7.75 -5.1875 7.75 -7 8 C-5.50902342 4.2047869 -3.24299151 2.38957269 0 0 Z " fill="#9DA3AA" transform="translate(205,422)"/>
<path d="M0 0 C2.31 0.66 4.62 1.32 7 2 C5.1875 3.5625 5.1875 3.5625 3 5 C2.01 4.67 1.02 4.34 0 4 C0 2.68 0 1.36 0 0 Z " fill="#E0C8B6" transform="translate(180,185)"/>
<path d="M0 0 C1.98 0 3.96 0 6 0 C6.33 0.66 6.66 1.32 7 2 C7.99 2.33 8.98 2.66 10 3 C10 3.66 10 4.32 10 5 C6.08788267 3.84414715 3.1254959 2.64465038 0 0 Z " fill="#1A0C00" transform="translate(256,58)"/>
<path d="M0 0 C-1 3 -1 3 -4 5 C-4.99 5 -5.98 5 -7 5 C-7 4.34 -7 3.68 -7 3 C-4.4385343 0.70351351 -3.52032428 0 0 0 Z " fill="#E0C8B4" transform="translate(283,293)"/>
<path d="M0 0 C0.33 0 0.66 0 1 0 C1.33 2.97 1.66 5.94 2 9 C1.01 8.67 0.02 8.34 -1 8 C-1.625 5.6875 -1.625 5.6875 -2 3 C-1.34 2.01 -0.68 1.02 0 0 Z " fill="#DAC6AF" transform="translate(218,250)"/>
<path d="M0 0 C0.66 0.33 1.32 0.66 2 1 C1.19185349 2.33597652 0.37836819 3.668725 -0.4375 5 C-0.88996094 5.7425 -1.34242187 6.485 -1.80859375 7.25 C-2.20175781 7.8275 -2.59492187 8.405 -3 9 C-3.33 9 -3.66 9 -4 9 C-4.25 6.75 -4.25 6.75 -4 4 C-2 1.6875 -2 1.6875 0 0 Z " fill="#B2B4B9" transform="translate(121,118)"/>
<path d="M0 0 C0.33 0 0.66 0 1 0 C3 7.625 3 7.625 3 11 C2.01 10.34 1.02 9.68 0 9 C-0.29296875 6.8359375 -0.29296875 6.8359375 -0.1875 4.375 C-0.16042969 3.55773437 -0.13335937 2.74046875 -0.10546875 1.8984375 C-0.05326172 0.95871094 -0.05326172 0.95871094 0 0 Z " fill="#E7D080" transform="translate(298,363)"/>
<path d="M0 0 C0 3 0 3 -1 5 C-3.5625 5.625 -3.5625 5.625 -6 6 C-6 5.34 -6 4.68 -6 4 C-4.03852126 2.61061923 -2.03833424 1.2739589 0 0 Z " fill="#D9C4B0" transform="translate(271,273)"/>
<path d="M0 0 C2 1.375 2 1.375 4 3 C4 3.66 4 4.32 4 5 C4.99 5.33 5.98 5.66 7 6 C6.01 6.33 5.02 6.66 4 7 C2 5.1875 2 5.1875 0 3 C0 2.01 0 1.02 0 0 Z " fill="#E6D2C0" transform="translate(138,215)"/>
<path d="M0 0 C2.01822917 0.26041667 4.03645833 0.52083333 6.0546875 0.78125 C8.00498344 1.0372485 8.00498344 1.0372485 10 1 C9.67 1.99 9.34 2.98 9 4 C4.545 3.01 4.545 3.01 0 2 C0 1.34 0 0.68 0 0 Z " fill="#251303" transform="translate(244,99)"/>
</svg>
